<svg width="88" height="81" viewBox="0 0 88 81" fill="none" xmlns="http://www.w3.org/2000/svg">
<path id="Vector" d="M84.772 63.5741C86.9885 59.102 88.0933 54.1679 87.9938 49.1849C87.8944 44.2019 86.5935 39.3151 84.2003 34.9337C81.807 30.5522 78.391 26.8037 74.2383 24.0021C70.0856 21.2004 65.317 19.4271 60.332 18.8307C58.672 15.0145 56.2605 11.566 53.239 8.68792C50.2176 5.8098 46.6471 3.56006 42.7374 2.07085C38.8277 0.581643 34.6576 -0.117 30.472 0.0159659C26.2865 0.148932 22.1699 1.11082 18.3641 2.84514C14.5583 4.57945 11.1401 7.05121 8.31025 10.1152C5.48039 13.1792 3.29594 16.7737 1.88525 20.6874C0.47456 24.6012 -0.133933 28.7553 0.0955192 32.9057C0.324971 37.0562 1.38774 41.1193 3.2214 44.8563L0.212061 55.3149C-0.0219936 56.1271 -0.0629494 56.9822 0.0924155 57.8128C0.24778 58.6434 0.595227 59.4269 1.10741 60.1016C1.6196 60.7763 2.28255 61.3238 3.04408 61.7011C3.80562 62.0783 4.64497 62.275 5.49608 62.2756C6.00647 62.277 6.51446 62.2061 7.00467 62.065L17.5413 59.0779C20.7196 60.6374 24.144 61.6438 27.6654 62.0533C29.3418 65.9507 31.8006 69.4681 34.8918 72.3911C37.9829 75.3141 41.6417 77.5813 45.6447 79.0545C49.6478 80.5276 53.9113 81.1757 58.1751 80.9593C62.4388 80.7429 66.6135 79.6665 70.4443 77.7958L80.9809 80.7829C81.9235 81.0494 82.9208 81.0611 83.8695 80.8167C84.8182 80.5723 85.6839 80.0807 86.3769 79.3927C87.07 78.7048 87.5653 77.8455 87.8115 76.9039C88.0577 75.9622 88.046 74.9723 87.7774 74.0366L84.772 63.5741ZM19.3877 52.9986C18.6671 52.6079 17.821 52.5127 17.0306 52.7334L6.65502 55.6775L9.62114 45.3788C9.84343 44.5942 9.74754 43.7544 9.354 43.0391C6.11148 37.2547 5.31676 30.4286 7.14467 24.0626C8.97258 17.6966 13.2734 12.312 19.1009 9.09351C24.9285 5.875 31.8055 5.08616 38.219 6.90054C44.6325 8.71491 50.0572 12.9839 53.2997 18.7683C45.576 19.5804 38.4276 23.1983 33.2292 28.9263C28.0307 34.6542 25.1494 42.0877 25.1393 49.797C25.1406 51.6674 25.3128 53.5339 25.6539 55.3734C23.4668 54.8661 21.3589 54.0672 19.3877 52.9986ZM78.384 64.0967L81.3502 74.3954L70.9746 71.4512C70.1842 71.2306 69.3381 71.3258 68.6175 71.7164C63.312 74.5848 57.1428 75.4596 51.2404 74.1803C45.338 72.901 40.0976 69.5534 36.4796 64.7509C32.8616 59.9484 31.1083 54.0126 31.5408 48.0312C31.9734 42.0498 34.5629 36.4235 38.8349 32.1832C43.1069 27.9428 48.7752 25.3725 54.8011 24.9431C60.8271 24.5137 66.8072 26.2541 71.6455 29.8453C76.4839 33.4366 79.8564 38.6381 81.1453 44.4968C82.4341 50.3555 81.5528 56.479 78.663 61.7452C78.2623 62.4622 78.1621 63.3069 78.384 64.0967ZM50.2825 45.1176C50.2825 46.0431 50.006 46.9478 49.488 47.7173C48.97 48.4869 48.2337 49.0866 47.3723 49.4408C46.5108 49.795 45.5629 49.8877 44.6484 49.7071C43.7339 49.5265 42.8939 49.0809 42.2346 48.4264C41.5753 47.772 41.1263 46.9382 40.9444 46.0305C40.7625 45.1227 40.8558 44.1819 41.2127 43.3268C41.5695 42.4717 42.1737 41.7409 42.949 41.2267C43.7243 40.7125 44.6357 40.4381 45.5682 40.4381C46.8185 40.4381 48.0176 40.9311 48.9017 41.8087C49.7858 42.6862 50.2825 43.8765 50.2825 45.1176ZM72.2829 45.1176C72.2829 46.0431 72.0064 46.9478 71.4884 47.7173C70.9703 48.4869 70.2341 49.0866 69.3726 49.4408C68.5112 49.795 67.5633 49.8877 66.6488 49.7071C65.7343 49.5265 64.8943 49.0809 64.235 48.4264C63.5756 47.772 63.1266 46.9382 62.9447 46.0305C62.7628 45.1227 62.8562 44.1819 63.213 43.3268C63.5698 42.4717 64.1741 41.7409 64.9494 41.2267C65.7246 40.7125 66.6361 40.4381 67.5685 40.4381C68.8188 40.4381 70.018 40.9311 70.9021 41.8087C71.7862 42.6862 72.2829 43.8765 72.2829 45.1176Z" fill="white"/>
</svg>
