<svg width="78" height="81" viewBox="0 0 78 81" fill="none" xmlns="http://www.w3.org/2000/svg">
<path id="Vector" d="M75 21C70.2276 20.995 65.6521 19.097 62.2776 15.7224C58.903 12.3479 57.005 7.77237 57 3C57 2.20435 56.6839 1.44129 56.1213 0.87868C55.5587 0.31607 54.7957 0 54 0H39C38.2043 0 37.4413 0.31607 36.8787 0.87868C36.3161 1.44129 36 2.20435 36 3V52.5C35.9994 53.8421 35.6387 55.1594 34.9555 56.3145C34.2723 57.4697 33.2916 58.4204 32.1158 59.0674C30.94 59.7144 29.6122 60.0341 28.2707 59.9931C26.9293 59.952 25.6234 59.5518 24.4894 58.8341C23.3553 58.1165 22.4346 57.1077 21.8233 55.9129C21.212 54.7182 20.9324 53.3813 21.0138 52.0417C21.0952 50.7021 21.5346 49.4089 22.2861 48.2969C23.0375 47.185 24.0736 46.2951 25.2863 45.72C25.7992 45.4766 26.2325 45.0926 26.5359 44.6126C26.8392 44.1327 27.0002 43.5765 27 43.0088V27C27.0002 26.5615 26.9042 26.1282 26.7189 25.7308C26.5336 25.3334 26.2633 24.9814 25.9273 24.6997C25.5912 24.4179 25.1975 24.2133 24.7738 24.1002C24.3501 23.9871 23.9068 23.9683 23.475 24.045C10.0912 26.43 0 38.6625 0 52.5C0 60.0587 3.00267 67.3078 8.34746 72.6525C13.6922 77.9973 20.9413 81 28.5 81C36.0587 81 43.3078 77.9973 48.6525 72.6525C53.9973 67.3078 57 60.0587 57 52.5V37.6087C62.5562 40.5077 68.733 42.0146 75 42C75.7956 42 76.5587 41.6839 77.1213 41.1213C77.6839 40.5587 78 39.7957 78 39V24C78 23.2044 77.6839 22.4413 77.1213 21.8787C76.5587 21.3161 75.7956 21 75 21ZM72 35.865C66.1374 35.3455 60.5237 33.2532 55.7513 29.8088C55.3027 29.4862 54.7738 29.2939 54.2228 29.2528C53.6719 29.2118 53.1203 29.3237 52.629 29.5762C52.1376 29.8287 51.7254 30.2119 51.438 30.6837C51.1506 31.1555 50.999 31.6975 51 32.25V52.5C51 58.4674 48.6295 64.1903 44.4099 68.4099C40.1903 72.6295 34.4674 75 28.5 75C22.5326 75 16.8097 72.6295 12.5901 68.4099C8.37053 64.1903 6 58.4674 6 52.5C6 42.7875 12.24 34.0763 21 30.9V41.2762C19.0607 42.572 17.4902 44.3481 16.4415 46.4314C15.3928 48.5147 14.9018 50.8342 15.0163 53.1638C15.1307 55.4933 15.8468 57.7535 17.0946 59.724C18.3425 61.6944 20.0796 63.308 22.1366 64.4074C24.1936 65.5068 26.5003 66.0545 28.832 65.9971C31.1636 65.9398 33.4407 65.2793 35.4411 64.0801C37.4416 62.8809 39.0972 61.1839 40.2467 59.1544C41.3961 57.125 42.0002 54.8324 42 52.5V6H51.1875C51.8622 11.2841 54.2719 16.1947 58.0386 19.9614C61.8054 23.7281 66.7159 26.1378 72 26.8125V35.865Z" fill="white"/>
</svg>
